<svg width="697" height="155" viewBox="0 0 697 155" fill="none" xmlns="http://www.w3.org/2000/svg">
<g clip-path="url(#clip0_6001_580)">
<path d="M610.278 81.577L603.124 101.111L585.269 150.039L583.205 152.116H577.136L551.715 86.2899C551.715 86.2899 544.637 67.9033 540.937 58.7874C540.616 57.9813 539.134 57.2371 538.17 57.1906C534.272 57.0046 530.344 57.1131 526.232 57.1131V51.625H573.223V56.9891H556.79C566.283 82.0731 584.963 131.419 584.963 131.419L585.942 131.342L588.174 125.73L606.609 74.0425L606.64 69.6241C606.64 69.6241 603.659 61.454 602.023 57.0821H587.868V51.687H634.951V56.9426H618.334C627.43 82.0731 645.285 131.404 645.285 131.404L646.554 131.512C646.554 131.512 665.632 82.1971 675.339 57.0976H657.713V51.7025H697.015V57.0976C692.857 57.0976 688.653 57.2061 684.465 57.0511C682.585 56.9736 681.667 57.7177 681.025 59.3765C671.67 83.4994 652.882 131.745 652.882 131.745L645.392 150.55L643.252 152.147L637.84 152.225L611.18 81.5305L610.309 81.5925L610.278 81.577Z" fill="black"/>
<path d="M186.055 95.5919H252.843C253.21 89.6232 251.895 82.1817 249.297 75.2363C243.304 59.2216 227.696 50.8034 211.584 55.2683C200.532 58.3379 193.729 66.291 189.495 76.6936C187.064 82.6933 185.795 88.9565 186.055 95.5764M268.497 101.421H185.78C186.346 117.513 189.8 132.102 203.1 142.117C215.91 151.76 238.412 151.294 251.009 135.59C254.876 130.768 261.22 119.141 261.22 119.141H267.518C267.518 119.141 259.401 138.024 251.116 144.411C234.881 156.938 217.148 157.682 198.927 150.008C178.259 141.311 168.598 120.381 169.851 98.9095C170.723 84.0576 175.859 71.1435 186.896 61.0665C195.793 52.9273 206.448 49.0516 218.417 48.85C235.355 48.5555 249.434 54.6482 259.615 68.5855C266.586 78.1354 269.475 89.034 268.543 101.421" fill="black"/>
<path d="M55.9343 7.27051H0V13.3167H19.6894V146.209H0.0152868V152.054H55.8884V145.977H36.1379V13.1152H55.9343V7.27051Z" fill="black"/>
<path d="M150.361 115.499H157.331C156.078 123.049 153.265 129.854 148.832 135.916C131.955 159 101.428 159.806 81.6925 145.001C69.1573 135.606 63.1802 122.32 62.0796 106.631C61.1012 92.8485 63.9598 80.105 71.9854 68.8187C88.3422 45.8121 119.604 43.4557 138.957 56.8348C149.275 63.9663 155.069 74.2913 156.964 87.0814H142.794C140.638 81.1902 139.033 75.2525 136.358 69.8729C128.898 54.8194 112.083 49.5174 97.5296 57.579C89.504 62.0284 84.7498 69.5319 81.723 78.0276C76.0364 94.0113 75.7612 110.088 82.3039 125.901C90.1919 144.954 107.16 152.396 125.535 146.536C136.129 143.156 142.564 134.908 147.059 125.048C148.419 122.041 149.229 118.785 150.345 115.499" fill="black"/>
<path d="M432.998 102.445C433.288 105.111 433.517 109.328 434.266 113.436C436.315 124.738 440.947 134.986 450.791 141.885C467.775 153.791 492.02 149.14 502.277 128.521C509.187 114.615 510.043 99.9797 506.527 85.0967C504.173 75.1593 499.51 66.3225 490.69 60.2918C476.03 50.2458 456.631 52.6643 444.921 65.7954C435.933 75.8879 433.502 88.1199 432.998 102.445ZM523.312 101.592C523.22 131.885 500.871 154.582 471.413 154.287C441.268 153.977 419.316 131.389 419.515 100.879C419.713 70.6789 441.803 48.804 472.009 48.9125C501.803 49.021 523.403 71.1905 523.312 101.592Z" fill="black"/>
<path d="M517.289 51.5947L417.497 152.039H423.092L522.868 51.5947H517.289Z" fill="black"/>
<path d="M347.759 0.0465922C339.427 8.29159e-05 331.188 -0.0619295 322.948 0.124108C308.395 0.480679 300.263 8.6043 299.682 23.2392C299.345 31.4714 299.498 39.719 299.407 47.9667C299.407 49.0674 299.3 50.1526 299.223 51.5324H281.093V57.191H298.872V146.489H281.047V151.961H335.514V146.458H314.174V57.0205H335.437V51.3153H305.827C305.72 50.6332 305.644 50.3231 305.644 50.0131C305.628 43.0212 305.567 36.0293 305.628 29.0219C305.705 19.9991 310.138 15.3016 319.081 15.1466C328.635 14.9761 338.204 15.0071 347.759 15.0071V0.0465922Z" fill="black"/>
<path d="M392.411 146.442V0.0771484H359.545V5.70477H377.216V146.349H359.453V152.039H410.373V146.442H392.411Z" fill="black"/>
</g>
<defs>
<clipPath id="clip0_6001_580">
<rect width="697" height="155" fill="white"/>
</clipPath>
</defs>
</svg>
