<svg width="32" height="32" viewBox="0 0 45 45" fill="none" xmlns="http://www.w3.org/2000/svg">
<path d="M6.60606 23.0212C6.72923 24.1517 6.82647 25.9393 7.14412 27.6809C8.01281 32.4721 9.97711 36.8163 14.152 39.741C21.3543 44.7885 31.636 42.8168 35.9859 34.0757C38.9161 28.1804 39.2792 21.9762 37.7881 15.6669C36.7898 11.4541 34.8125 7.70793 31.072 5.15134C24.855 0.892531 16.6284 1.9178 11.6626 7.48448C7.85074 11.763 6.81999 16.9485 6.60606 23.0212ZM44.9062 22.6598C44.8673 35.5019 35.3895 45.1236 22.8972 44.9988C10.1132 44.8673 0.803987 35.2916 0.888263 22.3574C0.972539 9.55473 10.3401 0.281313 23.1501 0.327319C35.785 0.373324 44.9451 9.77161 44.9062 22.6598Z" fill="#732C56"/>
<path d="M42.3958 0L0 42.57H2.37697L44.7663 0H42.3958Z" fill="#732C56"/>
</svg>
