<svg width="32" height="32" viewBox="0 0 45 45" fill="none" xmlns="http://www.w3.org/2000/svg">
<path d="M6.60594 23.0212C6.72911 24.1517 6.82634 25.9393 7.144 27.6809C8.01269 32.4721 9.97698 36.8163 14.1519 39.741C21.3542 44.7885 31.6359 42.8168 35.9858 34.0757C38.916 28.1804 39.279 21.9762 37.788 15.6669C36.7897 11.4541 34.8124 7.70793 31.0719 5.15134C24.8549 0.892531 16.6283 1.9178 11.6625 7.48448C7.85062 11.763 6.81987 16.9485 6.60594 23.0212ZM44.9061 22.6598C44.8672 35.5019 35.3894 45.1236 22.8971 44.9988C10.1131 44.8673 0.803865 35.2916 0.888141 22.3574C0.972417 9.55473 10.34 0.281313 23.1499 0.327319C35.7848 0.373324 44.945 9.77161 44.9061 22.6598Z" fill="#FF5A39"/>
<path d="M42.3958 0L0 42.57H2.37697L44.7663 0H42.3958Z" fill="#FF5A39"/>
</svg>
