<svg width="942" height="956" viewBox="0 0 942 956" fill="none" xmlns="http://www.w3.org/2000/svg">
<path d="M122.373 485.654C125.009 509.845 127.09 548.101 133.888 585.372C152.478 687.903 194.514 780.87 283.857 843.458C437.987 951.474 658.015 909.28 751.103 722.221C813.81 596.061 821.579 463.291 789.671 328.271C768.306 238.117 725.993 157.949 645.945 103.238C512.902 12.0992 336.852 34.04 230.583 153.167C149.009 244.728 126.951 355.697 122.373 485.654ZM941.997 477.919C941.165 752.741 738.34 958.646 471.005 955.974C197.427 953.161 -1.79136 748.24 0.0121468 471.449C1.81565 197.471 202.282 -0.980875 476.415 0.00364696C746.802 0.988169 942.83 202.112 941.997 477.919Z" fill="#F3F3F3"/>
<path d="M832.232 55C830.903 55 829.628 55.5293 828.69 56.4709L54.4983 833.471C51.3573 836.623 53.5901 842 58.0402 842H87.888C89.2174 842 90.492 841.471 91.4302 840.529L865.503 63.5289C868.644 60.3763 866.411 55 861.961 55H832.232Z" fill="#F3F3F3"/>
</svg>