<svg width="24" height="24" viewBox="0 0 24 24" fill="none" xmlns="http://www.w3.org/2000/svg">
<path d="M21.311 17.4066L22.2999 17.2583L21.311 17.4066ZM19.511 5.40664L18.522 5.55498L19.511 5.40664ZM4.48898 5.40664L5.47792 5.55498L4.48898 5.40664ZM2.68898 17.4066L3.67792 17.555L2.68898 17.4066ZM2.68898 17.4066L3.67792 17.555L5.47792 5.55498L4.48898 5.40664L3.50004 5.2583L1.70004 17.2583L2.68898 17.4066ZM8.44473 2V3H15.5552V2V1H8.44473V2ZM19.511 5.40664L18.522 5.55498L20.322 17.555L21.311 17.4066L22.2999 17.2583L20.4999 5.2583L19.511 5.40664ZM17.3552 22V21H6.64472V22V23H17.3552V22ZM21.311 17.4066L20.322 17.555C20.4867 18.6529 20.5921 19.3711 20.5966 19.9047C20.6009 20.4101 20.5095 20.5664 20.4353 20.6526L21.1931 21.3051L21.9508 21.9577C22.4751 21.3489 22.6028 20.6239 22.5965 19.8877C22.5905 19.1797 22.4556 18.2961 22.2999 17.2583L21.311 17.4066ZM17.3552 22V23C18.4047 23 19.2985 23.0024 19.9995 22.9033C20.7285 22.8003 21.4266 22.5664 21.9508 21.9577L21.1931 21.3051L20.4353 20.6526C20.3612 20.7387 20.2201 20.8523 19.7197 20.923C19.1913 20.9976 18.4654 21 17.3552 21V22ZM15.5552 2V3C16.4028 3 16.9451 3.00185 17.3493 3.05274C17.7257 3.10011 17.8545 3.17707 17.9302 3.24226L18.5827 2.48452L19.2353 1.72678C18.7484 1.30745 18.185 1.14215 17.5991 1.06839C17.0411 0.998151 16.3509 1 15.5552 1V2ZM19.511 5.40664L20.4999 5.2583C20.3819 4.47142 20.2813 3.78862 20.1291 3.24718C19.9692 2.6787 19.7222 2.1461 19.2353 1.72678L18.5827 2.48452L17.9302 3.24226C18.0059 3.30745 18.1011 3.42338 18.2037 3.78856C18.314 4.18079 18.3963 4.71679 18.522 5.55498L19.511 5.40664ZM4.48898 5.40664L5.47792 5.55498C5.60364 4.71679 5.68591 4.18079 5.7962 3.78856C5.89889 3.42338 5.99409 3.30745 6.06979 3.24226L5.41724 2.48452L4.76468 1.72678C4.27777 2.1461 4.03072 2.6787 3.87087 3.24718C3.71863 3.78862 3.61808 4.47142 3.50004 5.2583L4.48898 5.40664ZM8.44473 2V1C7.64905 1 6.95888 0.998151 6.40085 1.06839C5.81495 1.14215 5.2516 1.30745 4.76468 1.72678L5.41724 2.48452L6.06979 3.24226C6.1455 3.17707 6.27427 3.10011 6.65064 3.05274C7.05489 3.00185 7.59716 3 8.44473 3V2ZM2.68898 17.4066L1.70004 17.2583C1.54437 18.2961 1.40944 19.1797 1.40342 19.8877C1.39715 20.6239 1.52486 21.3489 2.04913 21.9577L2.80687 21.3051L3.56461 20.6526C3.49045 20.5664 3.39904 20.4101 3.40334 19.9047C3.40789 19.3711 3.51323 18.6529 3.67792 17.555L2.68898 17.4066ZM6.64472 22V21C5.53457 21 4.80864 20.9976 4.28027 20.923C3.77981 20.8523 3.63877 20.7387 3.56461 20.6526L2.80687 21.3051L2.04913 21.9577C2.5734 22.5664 3.27147 22.8003 4.00044 22.9033C4.70148 23.0024 5.59527 23 6.64472 23V22ZM8.99998 6H7.99998V7H8.99998H9.99998V6H8.99998ZM15 7H16V6H15H14V7H15ZM12 10V11C14.2091 11 16 9.20914 16 7H15H14C14 8.10457 13.1045 9 12 9V10ZM8.99998 7H7.99998C7.99998 9.20914 9.79084 11 12 11V10V9C10.8954 9 9.99998 8.10457 9.99998 7H8.99998Z" fill="#1A1E1C"/>
</svg>
