<svg width="62" height="60" viewBox="0 0 62 60" fill="none" xmlns="http://www.w3.org/2000/svg">
<g clip-path="url(#clip0_8199_2764)">
<path d="M61.3502 37.4414C61.1077 37.1215 56.9449 31.5926 51.0443 29.1708C53.7117 22.728 53.1863 15.5085 53.1459 15.1429L53.0247 13.6807L51.7718 13.5893C51.4081 13.4979 45.0629 12.9496 39.3643 15.9654C37.2223 9.24843 32.2917 4.542 32.0492 4.31353L31.0792 3.39966L30.1093 4.31353C29.8264 4.542 24.9361 9.24843 22.7941 15.9654C17.0956 12.9039 10.71 13.4979 10.3463 13.5893L9.09341 13.6807L8.97216 15.1429C8.97216 15.5085 8.40635 22.728 11.0737 29.1708C5.17314 31.6383 1.01038 37.1215 0.808303 37.4414L0 38.538L0.808303 39.6347C1.09121 40.0002 7.88095 49.0475 16.5298 49.0475C17.0148 49.0475 17.4593 49.0018 17.9443 48.9561C20.8542 53.6169 25.6636 56.6784 31.0792 56.6784C36.4949 56.6784 41.3043 53.6169 44.1737 48.9561C44.6587 49.0018 45.1437 49.0475 45.6287 49.0475C54.2775 49.0475 61.0269 40.0002 61.3502 39.6347L62.1585 38.538L61.3502 37.4414ZM50.1148 16.925H50.1956C50.1956 18.4785 50.0744 21.1288 49.4681 23.9161C49.1448 25.3783 48.7002 26.8405 48.0536 28.257C47.5686 29.3993 46.9624 30.4959 46.1541 31.4555C46.1541 31.5469 46.0328 31.6383 45.952 31.7297C45.9116 31.7754 45.8308 31.8667 45.7904 31.9124C45.1033 32.6892 44.295 33.3746 43.4463 33.8773C40.6576 35.8421 37.3032 36.5732 34.8378 36.8017H34.757C36.0503 35.0653 37.6265 32.6892 38.7581 29.8562C39.0814 29.0794 39.3643 28.257 39.6068 27.4345C39.9302 26.2464 40.1726 24.967 40.2939 23.6876C40.2939 23.1393 40.3747 22.6367 40.3747 22.0883C40.3747 21.1745 40.2939 20.2606 40.1322 19.3467C43.7696 17.1991 48.0132 16.925 50.1148 16.925ZM31.0792 7.96901C32.5746 9.65968 35.4037 13.2695 36.6969 17.656C37.0203 18.8898 37.2628 20.1692 37.3436 21.4943V22.0883C37.3436 23.185 37.2223 24.2816 36.9799 25.3783C36.1715 28.9424 34.272 32.1409 32.615 34.2885C32.615 34.3342 32.615 34.3799 32.615 34.3799C32.615 34.3799 32.4938 34.5627 32.4129 34.6541C31.928 35.111 31.4834 35.5679 31.1197 36.0249C30.7963 35.6593 30.3922 35.2024 29.9072 34.7454C29.8264 34.6084 29.7051 34.4713 29.5839 34.3342C29.5839 34.3342 29.5839 34.2885 29.5839 34.2428C28.0077 32.0952 26.1082 28.9424 25.2999 25.3783C25.0574 24.2816 24.9361 23.185 24.9361 22.0883V21.4943C25.017 20.1692 25.2595 18.8898 25.5828 17.656C26.8761 13.2695 29.7051 9.65968 31.2005 7.96901H31.0792ZM11.9629 16.925C13.3774 16.925 15.6811 17.062 18.1464 17.7474C19.3993 18.113 20.733 18.6156 21.9454 19.3467C21.8242 20.2606 21.7433 21.1745 21.7433 22.0883C21.7433 22.6367 21.7433 23.1393 21.8242 23.6876C21.905 24.967 22.1879 26.2464 22.5112 27.4345C22.7537 28.257 23.0366 29.0794 23.36 29.8562C24.4916 32.6892 26.0678 35.0653 27.361 36.8017H27.2802C24.8149 36.5732 21.5009 35.8878 18.6718 33.8773C17.8231 33.3746 17.0552 32.7349 16.3277 31.9124C16.3277 31.8667 16.2065 31.7754 16.1661 31.7297C16.0852 31.6383 16.0044 31.5469 15.964 31.4555C15.1557 30.4959 14.5494 29.3993 14.0645 28.257C12.165 24.1445 11.9225 19.301 11.9225 16.925H11.9629ZM16.5298 45.6205H16.2873C10.7908 45.4834 5.98144 40.7313 4.04151 38.538C5.53687 36.8473 8.72967 33.6488 12.6095 32.1866C13.0541 32.9177 13.5795 33.6488 14.1857 34.3342C14.509 34.6997 14.8728 35.0653 15.2365 35.4308C16.1256 36.2533 17.0956 36.9387 18.0656 37.4871C21.2988 39.3605 24.7745 40.0002 27.361 40.2287C25.4615 42.1021 22.6325 44.2954 19.4397 45.2093C18.4697 45.4834 17.4998 45.6205 16.5298 45.6205ZM31.0792 53.2513C27.159 53.2513 23.6024 51.2865 21.2584 48.1794C25.7849 46.5344 29.3414 42.9703 31.0792 41.0512C32.8575 43.0617 36.414 46.5344 40.9001 48.1794C38.5156 51.2865 34.9995 53.2513 31.0792 53.2513ZM45.8712 45.6205H45.6287C44.6183 45.6205 43.6484 45.4834 42.6784 45.2093C39.4856 44.2954 36.6969 42.1021 34.7974 40.2287C36.2524 40.0916 37.9902 39.8631 39.7685 39.3148C41.183 38.9036 42.6784 38.3095 44.0525 37.4871C45.0629 36.9387 45.9924 36.2533 46.8816 35.4308C47.2453 35.0653 47.609 34.6997 47.9324 34.3342C48.5386 33.6488 49.064 32.9177 49.549 32.1866C53.4288 33.6488 56.6216 36.8473 58.0766 38.538C56.177 40.7313 51.3676 45.4834 45.8712 45.6205Z" fill="#1A1E1C"/>
</g>
<defs>
<clipPath id="clip0_8199_2764">
<rect width="62" height="60" fill="white"/>
</clipPath>
</defs>
</svg>
